:SAMPLES-PER-SECOND 24
:FULLY-SPECIFIED
:DEGREES
244
root  5.0616 39.7982 18.8602 5.99225 -35.0549 -0.733536
RightUpLeg  -13.63 1.18954 -10.1516
RightLeg  30.2251 -15.0435 -9.4903
RightFoot  -6.74979 -0.0883317 1.24236
RightToes  -2.08645e-008 3.77894e-005 6.81332e-007
Spine  2.00551 0.810784 -2.13219
Spine1  7.58187 0.965687 -0.883753
HEad  -37.3263 18.3074 -13.556
LeftShoulder1  6.45239 -12.2352 -34.9798
LeftArm  1.67329 17.8253 -23.5916
LeftForeArm  148.175 -74.7906 -140.909
LeftHand  -0.435531 -1.94267 7.08487
RightShoulder  3.78719 6.54132 31.8131
RightArm  10.6546 -24.1209 29.8524
RightForeArm  119.322 80.2516 105.014
RightHand  -0.159929 8.78691 -1.69305
LeftUpLeg  -8.6987 -3.57999 0.303239
LeftLeg  10.619 3.37675 2.89448
LeftFoot  -8.40964 0.164736 -4.45414
LeftToes  1.24767e-006 1.47042e-008 1.32732e-009
245
root  5.1436 39.9006 18.9218 6.70819 -35.0867 -1.06442
RightUpLeg  -15.089 -4.35233 -6.98363
RightLeg  31.2312 -12.691 -8.4063
RightFoot  -9.10869 -0.101111 2.05032
RightToes  -2.08645e-008 3.77894e-005 6.81332e-007
Spine  2.0026 0.447343 -3.00144
Spine1  7.35607 0.442192 -0.217187
HEad  -36.0675 18.8387 -13.0346
LeftShoulder1  6.2915 -12.0659 -34.3986
LeftArm  0.044362 18.1452 -23.1366
LeftForeArm  148.036 -74.2235 -142.33
LeftHand  -0.426996 -1.97555 6.92129
RightShoulder  3.80022 6.54934 31.9136
RightArm  10.0176 -24.2028 29.7037
RightForeArm  120.565 80.2909 105.179
RightHand  -0.246373 8.59966 -2.42573
LeftUpLeg  -8.35559 -1.82116 0.637238
LeftLeg  8.72216 2.00038 2.17292
LeftFoot  -8.22043 0.19407 -5.31526
LeftToes  1.24767e-006 1.47042e-008 1.32732e-009
246
root  5.19513 39.9458 18.9805 6.95209 -35.446 -1.12276
RightUpLeg  -16.1696 -11.022 -3.37296
RightLeg  31.5393 -14.2682 -9.49101
RightFoot  -10.2241 -0.070113 0.0887971
RightToes  -2.08645e-008 3.77894e-005 6.81332e-007
Spine  2.29713 0.295767 -3.29423
Spine1  7.1665 0.30537 -0.161227
HEad  -34.894 19.205 -12.4634
LeftShoulder1  6.30044 -12.0609 -34.4685
LeftArm  -0.817886 16.9949 -22.4829
LeftForeArm  141.601 -75.8201 -136.632
LeftHand  -0.446076 -1.97515 7.22243
RightShoulder  3.89757 6.63848 32.5438
RightArm  9.15254 -24.1612 29.592
RightForeArm  110.507 80.6165 94.4909
RightHand  -0.137857 8.77476 -1.5162
LeftUpLeg  -7.91072 -1.15384 0.792545
LeftLeg  7.6057 1.80883 1.69227
LeftFoot  -8.51813 0.201409 -6.10175
LeftToes  1.24767e-006 1.47042e-008 1.32732e-009
247
root  5.1965 39.9294 19.0291 6.7674 -36.5253 -0.734467
RightUpLeg  -16.8166 -17.9383 0.151145
RightLeg  30.2066 -17.0624 -10.6724
RightFoot  -11.1303 -0.0719617 -1.31769
RightToes  -2.08645e-008 3.77894e-005 6.81332e-007
Spine  2.44579 0.502736 -3.83137
Spine1  7.52764 0.50136 0.0960197
HEad  -34.3367 19.6532 -12.4932
LeftShoulder1  6.62181 -12.3928 -35.6235
LeftArm  -1.00836 15.2114 -21.2816
LeftForeArm  132.889 -77.6709 -127.565
LeftHand  -0.490476 -1.84466 8.0554
RightShoulder  3.96089 6.68666 32.9839
RightArm  8.34773 -23.8985 29.7449
RightForeArm  92.816 80.3801 77.3613
RightHand  -0.155154 8.83473 -1.65399
LeftUpLeg  -7.66733 -0.88159 0.667421
LeftLeg  7.53674 2.40668 1.32021
LeftFoot  -8.9445 0.19468 -6.74199
LeftToes  1.24767e-006 1.47042e-008 1.32732e-009
248
root  5.13486 39.8598 19.1424 6.6925 -38.4908 -0.203827
RightUpLeg  -17.3748 -24.2212 3.64023
RightLeg  26.8788 -17.2019 -9.47592
RightFoot  -11.7418 -0.0824097 -0.998924
RightToes  -2.08645e-008 3.77894e-005 6.81332e-007
Spine  1.72337 0.706959 -3.61986
Spine1  8.54565 0.936704 -0.547165
HEad  -33.9584 20.6166 -12.8116
LeftShoulder1  6.87291 -12.6404 -36.5182
LeftArm  -0.872687 14.5685 -20.8719
LeftForeArm  129.033 -78.3545 -123.056
LeftHand  -0.535646 -1.73239 8.90921
RightShoulder  3.96357 6.68594 33.0127
RightArm  7.85509 -23.5488 30.2783
RightForeArm  77.1044 79.3145 60.7721
RightHand  -0.143333 9.12097 -1.53763
LeftUpLeg  -7.7913 -0.651162 0.35368
LeftLeg  8.16882 3.8785 1.1236
LeftFoot  -9.68247 0.162359 -7.20387
LeftToes  1.24767e-006 1.47042e-008 1.32732e-009
249
root  5.00612 39.7573 19.3103 6.41492 -41.1514 0.647812
RightUpLeg  -17.4365 -27.7305 6.31135
RightLeg  22.7287 -17.1376 -7.92233
RightFoot  -12.2751 -0.10362 -2.52342
RightToes  -2.08645e-008 3.77894e-005 6.81332e-007
Spine  1.25696 0.909958 -3.36113
Spine1  8.66954 1.37572 -1.27506
HEad  -33.0933 22.2941 -13.4246
LeftShoulder1  6.90368 -12.6524 -36.6722
LeftArm  -0.89294 15.9284 -22.3275
LeftForeArm  130.137 -78.1249 -124.575
LeftHand  -0.534292 -1.95034 8.64085
RightShoulder  3.95475 6.67961 32.9505
RightArm  8.33287 -23.7863 30.1932
RightForeArm  67.89 78.0416 50.7654
RightHand  -0.118692 9.09178 -1.3427
LeftUpLeg  -7.96199 -0.372426 -0.263618
LeftLeg  9.26336 5.97322 1.12
LeftFoot  -10.8553 0.0977991 -7.76358
LeftToes  1.24767e-006 1.47042e-008 1.32732e-009
250
root  4.80956 39.6547 19.5087 5.70886 -44.2979 1.65591
RightUpLeg  -16.4088 -26.2639 6.82307
RightLeg  19.8156 -19.9266 -7.94707
RightFoot  -12.9917 -0.163862 -5.28281
RightToes  -2.08645e-008 3.77894e-005 6.81332e-007
Spine  1.24001 1.17702 -2.81797
Spine1  8.12949 1.83229 -1.98714
HEad  -32.0098 24.6741 -14.4565
LeftShoulder1  6.97286 -12.714 -36.9285
LeftArm  -0.800786 17.7945 -24.3478
LeftForeArm  130.014 -78.0262 -125.046
LeftHand  -0.534792 -2.35703 8.22263
RightShoulder  3.97053 6.70976 32.99
RightArm  9.18686 -24.5771 29.5215
RightForeArm  61.5127 76.8499 44.6954
RightHand  -0.147754 8.96726 -1.58393
LeftUpLeg  -7.71538 0.41156 -0.935697
LeftLeg  10.4849 8.1877 1.19155
LeftFoot  -11.8829 0.0305481 -8.54986
LeftToes  1.24767e-006 1.47042e-008 1.32732e-009
251
root  4.54833 39.5764 19.7821 5.29767 -47.4469 1.65433
RightUpLeg  -14.6999 -22.6036 6.1218
RightLeg  19.0498 -21.8989 -8.1828
RightFoot  -13.4626 -0.199016 -5.85317
RightToes  -2.08645e-008 3.77894e-005 6.81332e-007
Spine  0.65468 1.24489 -0.611502
Spine1  8.78654 2.17658 -3.13384
HEad  -31.5535 27.5311 -16.0299
LeftShoulder1  7.21463 -12.9472 -37.758
LeftArm  -0.28258 18.907 -25.8825
LeftForeArm  128.539 -78.2517 -123.445
LeftHand  -0.564682 -2.48452 8.53908
RightShoulder  3.96603 6.72738 32.8789
RightArm  9.43105 -25.1496 29.0455
RightForeArm  55.8523 75.3702 39.0193
RightHand  -0.116598 9.2611 -1.31824
LeftUpLeg  -7.17641 2.88011 -0.895276
LeftLeg  12.1751 8.739 1.27087
LeftFoot  -13.1212 -0.0631967 -9.09312
LeftToes  1.24767e-006 1.47042e-008 1.32732e-009
252
root  4.2719 39.5249 20.0585 5.6759 -50.6865 0.454559
RightUpLeg  -13.0212 -20.8946 5.98304
RightLeg  18.5133 -19.626 -7.00484
RightFoot  -13.7671 -0.205808 -5.32145
RightToes  -2.08645e-008 3.77894e-005 6.81332e-007
Spine  0.453175 1.16358 2.48057
Spine1  9.44567 2.36594 -4.38298
HEad  -31.6474 30.6718 -17.5891
LeftShoulder1  7.43786 -13.1497 -38.5351
LeftArm  0.462834 19.4425 -27.6328
LeftForeArm  126.996 -78.4582 -121.835
LeftHand  -0.549179 -2.4479 8.34502
RightShoulder  4.00239 6.76516 33.0898
RightArm  9.22958 -25.2121 28.0824
RightForeArm  50.2877 73.4088 33.4923
RightHand  -0.14741 9.35884 -1.55799
LeftUpLeg  -8.04984 9.08343 -0.234858
LeftLeg  16.7779 5.42002 1.60851
LeftFoot  -14.5238 -0.190798 -9.88042
LeftToes  1.24767e-006 1.47042e-008 1.32732e-009
253
root  3.95063 39.5318 20.2269 6.28058 -54.0333 -0.698364
RightUpLeg  -11.194 -18.0107 5.95973
RightLeg  16.9479 -19.1842 -5.47654
RightFoot  -13.8406 -0.22271 -5.91963
RightToes  -2.08645e-008 3.77894e-005 6.81332e-007
Spine  0.997879 1.26301 3.46141
Spine1  9.24478 2.30624 -3.8608
HEad  -31.8912 33.7939 -18.6944
LeftShoulder1  7.51944 -13.228 -38.8007
LeftArm  1.77684 19.2933 -29.896
LeftForeArm  125.326 -78.6815 -119.987
LeftHand  -0.504249 -2.63501 7.51567
RightShoulder  4.02581 6.76334 33.325
RightArm  8.49285 -25.4333 26.8952
RightForeArm  45.5494 71.4291 29.3986
RightHand  -0.213463 9.5772 -2.04975
LeftUpLeg  -11.3942 13.979 0.626246
LeftLeg  25.3868 3.94878 2.40926
LeftFoot  -12.9746 -0.0873049 -11.6194
LeftToes  1.24767e-006 1.47042e-008 1.32732e-009
254
root  3.63787 39.5635 20.3488 6.67035 -57.8225 -1.37215
RightUpLeg  -9.77261 -12.5128 5.84756
RightLeg  15.8202 -21.6518 -5.15803
RightFoot  -13.6271 -0.221849 -6.50247
RightToes  -2.08645e-008 3.77894e-005 6.81332e-007
Spine  1.84905 1.49454 3.12857
Spine1  9.05186 2.22418 -2.55133
HEad  -32.9524 36.6652 -20.165
LeftShoulder1  7.59708 -13.317 -39.014
LeftArm  4.17936 18.2331 -31.3381
LeftForeArm  125.861 -78.7895 -119.499
LeftHand  -0.489696 -2.98079 7.02649
RightShoulder  3.98516 6.70597 33.1477
RightArm  7.2167 -25.7843 26.2869
RightForeArm  42.5767 70.1871 27.381
RightHand  -0.311838 9.03227 -2.89564
LeftUpLeg  -16.1168 15.9118 1.15671
LeftLeg  34.9914 5.41971 4.43185
LeftFoot  -8.4035 0.381593 -12.8827
LeftToes  1.24767e-006 1.47042e-008 1.32732e-009
255
root  3.3672 39.6043 20.5202 6.90771 -62.2986 -1.62209
RightUpLeg  -9.12462 -7.95379 5.68613
RightLeg  15.4904 -21.6155 -5.27715
RightFoot  -13.322 -0.198056 -6.24622
RightToes  -2.08645e-008 3.77894e-005 6.81332e-007
Spine  2.79334 1.42856 3.38728
Spine1  9.10668 2.22743 -2.69872
HEad  -35.2312 39.4252 -22.4017
LeftShoulder1  7.55464 -13.2909 -38.8396
LeftArm  7.29285 16.7781 -31.6519
LeftForeArm  128.206 -78.7204 -120.687
LeftHand  -0.468447 -3.38857 6.44625
RightShoulder  3.99165 6.72889 33.1236
RightArm  6.2292 -25.7141 26.0143
RightForeArm  41.0902 69.6586 26.6605
RightHand  -0.326794 8.22279 -3.1574
LeftUpLeg  -20.5507 16.4154 1.1509
LeftLeg  41.3714 6.29874 6.29139
LeftFoot  -5.85126 0.622515 -12.2021
LeftToes  1.24767e-006 1.47042e-008 1.32732e-009
256
root  3.07763 39.7077 20.8094 6.70074 -67.1205 -0.913986
RightUpLeg  -8.55852 -4.52752 4.7685
RightLeg  14.325 -19.8511 -4.52728
RightFoot  -12.8197 -0.164432 -6.03959
RightToes  -2.08645e-008 3.77894e-005 6.81332e-007
Spine  2.87116 1.26106 3.22387
Spine1  9.76129 2.12842 -2.93414
HEad  -37.9883 41.9754 -25.3288
LeftShoulder1  7.55034 -13.3219 -38.7356
LeftArm  10.4274 15.1902 -31.1524
LeftForeArm  127.939 -78.7998 -120.117
LeftHand  -0.409205 -3.62751 5.52611
RightShoulder  3.90698 6.6753 32.496
RightArm  5.57717 -25.4375 26.2821
RightForeArm  40.6061 69.3892 26.2633
RightHand  -0.271047 8.81826 -2.6011
LeftUpLeg  -23.8869 14.5505 0.811148
LeftLeg  42.5718 6.594 6.84095
LeftFoot  -6.4133 0.523599 -11.2472
LeftToes  1.24767e-006 1.47042e-008 1.32732e-009
257
root  2.77669 39.7969 21.1874 6.82996 -73.3582 -0.432434
RightUpLeg  -8.18681 -0.954981 3.9169
RightLeg  13.0624 -17.4575 -4.03454
RightFoot  -12.3234 -0.133522 -5.86491
RightToes  -2.08645e-008 3.77894e-005 6.81332e-007
Spine  3.59731 1.44283 3.30782
Spine1  9.24254 2.46569 -3.4665
HEad  -40.4928 44.8672 -28.1302
LeftShoulder1  7.48271 -13.3 -38.4068
LeftArm  12.9728 14.4488 -30.4865
LeftForeArm  127.322 -78.9102 -119.228
LeftHand  -0.353918 -3.58653 4.83372
RightShoulder  3.80251 6.60375 31.7307
RightArm  5.93837 -24.9767 26.3277
RightForeArm  40.9414 69.6533 26.6759
RightHand  -0.292343 9.11344 -2.72558
LeftUpLeg  -25.7201 10.5559 1.62211
LeftLeg  39.6559 6.73544 6.33032
LeftFoot  -7.46571 0.417936 -11.0253
LeftToes  1.24767e-006 1.47042e-008 1.32732e-009
258
root  2.45771 39.8083 21.7331 8.88733 -81.0836 -1.85495
RightUpLeg  -8.55413 2.07208 3.14697
RightLeg  12.8562 -12.6626 -3.77338
RightFoot  -12.202 -0.120814 -5.11317
RightToes  -2.08645e-008 3.77894e-005 6.81332e-007
Spine  4.26488 1.67858 4.93744
Spine1  8.78903 3.30284 -5.63928
HEad  -42.6027 47.7615 -30.2385
LeftShoulder1  7.22317 -13.0838 -37.4593
LeftArm  14.5068 14.4707 -29.9278
LeftForeArm  129.676 -78.7715 -120.854
LeftHand  -0.316896 -3.89894 4.22957
RightShoulder  3.76395 6.62332 31.2725
RightArm  7.60115 -23.5806 26.0734
RightForeArm  41.8394 70.4375 28.0077
RightHand  -0.331325 8.401 -3.16365
LeftUpLeg  -26.1914 3.86174 4.31066
LeftLeg  34.6598 6.46422 5.14654
LeftFoot  -8.60018 0.291385 -10.013
LeftToes  1.24767e-006 1.47042e-008 1.32732e-009
